<svg width="204" height="51" viewBox="0 0 204 51" fill="none" xmlns="http://www.w3.org/2000/svg">
<path d="M20.9683 32.8571C20.957 31.4107 20.5941 29.9918 19.9148 28.7384C19.2356 27.485 18.2631 26.4395 17.0918 25.7034L29.0261 3.71429L26.2365 2L14.0183 24.5017C12.5188 24.1456 10.9593 24.1948 9.48232 24.645C8.00536 25.0951 6.65812 25.9317 5.56384 27.0783C-0.473465 33.2686 -0.00583117 47.7406 0.0167442 48.3543C0.0334131 48.797 0.210635 49.2156 0.511255 49.5224C0.811875 49.8292 1.21255 50.0004 1.62927 50H25.8027C26.1411 50 26.471 49.8868 26.7455 49.6764C27.0201 49.466 27.2254 49.1692 27.3325 48.8278C27.4395 48.4865 27.4428 48.118 27.3419 47.7746C27.2409 47.4311 27.041 47.1302 26.7702 46.9143C21.0618 42.3611 20.9683 32.9497 20.9683 32.8571ZM12.788 27.7091C14.0786 27.7242 15.3141 28.2677 16.2373 29.2266C17.1606 30.1854 17.7005 31.4858 17.7449 32.8571C17.7449 32.9223 17.7481 33.2137 17.7723 33.6611L8.25838 29.1629C8.88507 28.6135 9.60825 28.202 10.3859 27.9525C11.1635 27.7029 11.98 27.6202 12.788 27.7091ZM18.4641 46.5714C17.1752 45.1762 16.3536 43.3691 16.1259 41.4286H12.9008C13.0163 43.253 13.5524 45.0193 14.4618 46.5714H10.8771C10.214 44.3467 9.8105 42.0437 9.67579 39.7143H6.45073C6.55472 42.0367 6.91462 44.3382 7.52306 46.5714H3.22567C3.27566 43.424 3.69331 36.4709 6.13306 31.9091L18.2802 37.652C18.8639 40.8737 20.1081 43.919 21.9246 46.5714H18.4641Z" fill="#36B864"/>
<path d="M39.4505 25V6.5H47.4255C48.9755 6.5 50.2671 6.8 51.3005 7.4C52.3338 8 53.1005 8.775 53.6005 9.725C54.1171 10.675 54.3755 11.6667 54.3755 12.7C54.3755 13.75 54.1171 14.75 53.6005 15.7C53.1005 16.65 52.3338 17.4333 51.3005 18.05C50.2671 18.65 48.9755 18.95 47.4255 18.95H43.7755V25H39.4505ZM47.4005 10.275H43.7755V15.2H47.4005C48.2838 15.2 48.9421 14.9417 49.3755 14.425C49.8088 13.9083 50.0255 13.3417 50.0255 12.725C50.0255 12.1083 49.8088 11.55 49.3755 11.05C48.9421 10.5333 48.2838 10.275 47.4005 10.275ZM56.4612 25V11.75H60.6862V13.75H60.8362C60.9695 13.4 61.1612 13.0583 61.4112 12.725C61.6779 12.375 62.0445 12.0833 62.5112 11.85C62.9779 11.6167 63.5945 11.5 64.3612 11.5C64.7279 11.5 65.0195 11.525 65.2362 11.575C65.4529 11.625 65.5612 11.65 65.5612 11.65V15.875C65.5612 15.875 65.4445 15.85 65.2112 15.8C64.9779 15.75 64.6529 15.725 64.2362 15.725C63.0529 15.725 62.1695 16.0417 61.5862 16.675C61.0195 17.3083 60.7362 18.3417 60.7362 19.775V25H56.4612ZM74.0307 25.25C72.5307 25.25 71.2557 24.9333 70.2057 24.3C69.1557 23.6667 68.3474 22.825 67.7807 21.775C67.2307 20.725 66.9557 19.5917 66.9557 18.375C66.9557 17.1583 67.2307 16.025 67.7807 14.975C68.3474 13.925 69.1557 13.0833 70.2057 12.45C71.2557 11.8167 72.5307 11.5 74.0307 11.5C75.5474 11.5 76.8307 11.8167 77.8807 12.45C78.9307 13.0833 79.7307 13.925 80.2807 14.975C80.8474 16.025 81.1307 17.1583 81.1307 18.375C81.1307 19.5917 80.8474 20.725 80.2807 21.775C79.7307 22.825 78.9307 23.6667 77.8807 24.3C76.8307 24.9333 75.5474 25.25 74.0307 25.25ZM74.0307 21.8C74.9141 21.8 75.5974 21.4667 76.0807 20.8C76.5807 20.1167 76.8307 19.3083 76.8307 18.375C76.8307 17.4417 76.5807 16.6417 76.0807 15.975C75.5974 15.2917 74.9141 14.95 74.0307 14.95C73.1641 14.95 72.4807 15.2917 71.9807 15.975C71.4807 16.6417 71.2307 17.4417 71.2307 18.375C71.2307 19.3083 71.4807 20.1167 71.9807 20.8C72.4807 21.4667 73.1641 21.8 74.0307 21.8Z" fill="#36B864"/>
<path d="M92.4102 25.25C90.8769 25.25 89.5269 24.9833 88.3602 24.45C87.1936 23.9 86.2186 23.175 85.4352 22.275C84.6686 21.3583 84.0852 20.3333 83.6852 19.2C83.3019 18.0667 83.1102 16.9083 83.1102 15.725C83.1102 14.5583 83.3019 13.4083 83.6852 12.275C84.0852 11.1417 84.6686 10.125 85.4352 9.225C86.2186 8.325 87.1936 7.60833 88.3602 7.075C89.5269 6.525 90.8769 6.25 92.4102 6.25C93.7269 6.25 94.8436 6.41667 95.7602 6.75C96.6936 7.06667 97.4686 7.49167 98.0852 8.025C98.7186 8.54167 99.2186 9.09167 99.5852 9.675C99.9686 10.2417 100.252 10.7833 100.435 11.3C100.619 11.8167 100.735 12.2417 100.785 12.575C100.852 12.9083 100.885 13.075 100.885 13.075H96.6102C96.6102 13.075 96.5602 12.925 96.4602 12.625C96.3769 12.325 96.1936 11.9833 95.9102 11.6C95.6436 11.2 95.2352 10.85 94.6852 10.55C94.1352 10.25 93.3936 10.1 92.4602 10.1C91.3769 10.1 90.4686 10.375 89.7352 10.925C89.0186 11.475 88.4769 12.1833 88.1102 13.05C87.7602 13.9 87.5852 14.7917 87.5852 15.725C87.5852 16.6583 87.7602 17.5583 88.1102 18.425C88.4769 19.2917 89.0186 20 89.7352 20.55C90.4686 21.1 91.3769 21.375 92.4602 21.375C93.3936 21.375 94.1352 21.225 94.6852 20.925C95.2352 20.625 95.6436 20.2833 95.9102 19.9C96.1936 19.5167 96.3769 19.175 96.4602 18.875C96.5602 18.575 96.6102 18.425 96.6102 18.425H100.885C100.885 18.425 100.852 18.5917 100.785 18.925C100.735 19.2417 100.619 19.6667 100.435 20.2C100.252 20.7167 99.9686 21.2667 99.5852 21.85C99.2186 22.4167 98.7186 22.9667 98.0852 23.5C97.4686 24.0167 96.6936 24.4417 95.7602 24.775C94.8436 25.0917 93.7269 25.25 92.4102 25.25ZM103.366 25V6H107.641V25H103.366ZM117.167 25.25C115.984 25.25 114.959 25.0583 114.092 24.675C113.225 24.275 112.5 23.75 111.917 23.1C111.35 22.4333 110.925 21.6917 110.642 20.875C110.375 20.0583 110.242 19.2167 110.242 18.35C110.242 17.5167 110.375 16.6917 110.642 15.875C110.909 15.0583 111.317 14.325 111.867 13.675C112.417 13.0083 113.117 12.4833 113.967 12.1C114.834 11.7 115.859 11.5 117.042 11.5C118.309 11.5 119.417 11.775 120.367 12.325C121.334 12.8583 122.084 13.65 122.617 14.7C123.167 15.7333 123.442 16.9917 123.442 18.475V19.475H114.542C114.592 20.1583 114.834 20.7583 115.267 21.275C115.717 21.775 116.35 22.025 117.167 22.025C117.784 22.025 118.25 21.9167 118.567 21.7C118.9 21.4667 119.125 21.2333 119.242 21C119.359 20.7667 119.417 20.65 119.417 20.65H123.342C123.342 20.65 123.3 20.8083 123.217 21.125C123.134 21.425 122.975 21.8083 122.742 22.275C122.509 22.725 122.167 23.1833 121.717 23.65C121.267 24.1 120.667 24.4833 119.917 24.8C119.184 25.1 118.267 25.25 117.167 25.25ZM114.517 17H119.342C119.309 16.2167 119.067 15.625 118.617 15.225C118.184 14.825 117.634 14.625 116.967 14.625C116.317 14.625 115.759 14.825 115.292 15.225C114.842 15.625 114.584 16.2167 114.517 17ZM131.47 11.5C132.337 11.5 133.037 11.6417 133.57 11.925C134.12 12.2083 134.529 12.5 134.795 12.8C135.079 13.0833 135.237 13.2583 135.27 13.325H135.47V11.75H139.745V25H135.47V23.425H135.27C135.237 23.4917 135.079 23.675 134.795 23.975C134.529 24.275 134.12 24.5667 133.57 24.85C133.037 25.1167 132.337 25.25 131.47 25.25C130.504 25.25 129.662 25.0583 128.945 24.675C128.229 24.275 127.629 23.75 127.145 23.1C126.662 22.4333 126.304 21.6917 126.07 20.875C125.837 20.0583 125.72 19.225 125.72 18.375C125.72 17.525 125.837 16.6917 126.07 15.875C126.304 15.0583 126.662 14.325 127.145 13.675C127.629 13.0083 128.229 12.4833 128.945 12.1C129.662 11.7 130.504 11.5 131.47 11.5ZM132.82 14.925C132.204 14.925 131.687 15.1 131.27 15.45C130.854 15.7833 130.545 16.2167 130.345 16.75C130.145 17.2667 130.045 17.8083 130.045 18.375C130.045 18.9417 130.145 19.4917 130.345 20.025C130.545 20.5417 130.854 20.975 131.27 21.325C131.687 21.6583 132.204 21.825 132.82 21.825C133.437 21.825 133.945 21.6583 134.345 21.325C134.762 20.975 135.07 20.5417 135.27 20.025C135.487 19.4917 135.595 18.9417 135.595 18.375C135.595 17.8083 135.487 17.2667 135.27 16.75C135.07 16.2167 134.762 15.7833 134.345 15.45C133.945 15.1 133.437 14.925 132.82 14.925ZM142.545 25V11.75H146.82V13.625H146.945C147.112 13.3583 147.337 13.0583 147.62 12.725C147.92 12.3917 148.312 12.1083 148.795 11.875C149.295 11.625 149.912 11.5 150.645 11.5C151.712 11.5 152.562 11.7417 153.195 12.225C153.845 12.7083 154.312 13.325 154.595 14.075C154.879 14.8083 155.02 15.5667 155.02 16.35V25H150.745V17.15C150.745 16.5833 150.595 16.0833 150.295 15.65C149.995 15.2 149.504 14.975 148.82 14.975C148.07 14.975 147.545 15.225 147.245 15.725C146.962 16.2083 146.82 16.7417 146.82 17.325V25H142.545ZM160.206 10.175C159.489 10.175 158.897 9.94167 158.431 9.475C157.964 9.00833 157.731 8.45833 157.731 7.825C157.731 7.15833 157.964 6.59167 158.431 6.125C158.897 5.65833 159.489 5.425 160.206 5.425C160.922 5.425 161.514 5.65833 161.981 6.125C162.447 6.59167 162.681 7.15833 162.681 7.825C162.681 8.45833 162.447 9.00833 161.981 9.475C161.514 9.94167 160.922 10.175 160.206 10.175ZM158.056 25V11.75H162.331V25H158.056ZM165.372 25V11.75H169.647V13.625H169.772C169.939 13.3583 170.164 13.0583 170.447 12.725C170.747 12.3917 171.139 12.1083 171.622 11.875C172.122 11.625 172.739 11.5 173.472 11.5C174.539 11.5 175.389 11.7417 176.022 12.225C176.672 12.7083 177.139 13.325 177.422 14.075C177.706 14.8083 177.847 15.5667 177.847 16.35V25H173.572V17.15C173.572 16.5833 173.422 16.0833 173.122 15.65C172.822 15.2 172.331 14.975 171.647 14.975C170.897 14.975 170.372 15.225 170.072 15.725C169.789 16.2083 169.647 16.7417 169.647 17.325V25H165.372ZM187.288 30.325C186.038 30.325 185.004 30.1667 184.188 29.85C183.371 29.55 182.721 29.1667 182.238 28.7C181.771 28.25 181.429 27.7917 181.213 27.325C180.996 26.875 180.854 26.4917 180.788 26.175C180.738 25.875 180.713 25.725 180.713 25.725H184.838C184.838 25.725 184.888 25.8333 184.988 26.05C185.104 26.2667 185.329 26.4833 185.663 26.7C186.013 26.9333 186.538 27.05 187.238 27.05C188.138 27.05 188.821 26.7917 189.288 26.275C189.771 25.7583 190.013 25.0417 190.013 24.125V22.75H189.813C189.646 23.0167 189.396 23.3 189.063 23.6C188.746 23.9 188.338 24.1583 187.838 24.375C187.338 24.575 186.738 24.675 186.038 24.675C185.071 24.675 184.221 24.4917 183.488 24.125C182.771 23.7583 182.163 23.2583 181.663 22.625C181.179 21.9917 180.813 21.2833 180.563 20.5C180.329 19.7167 180.213 18.9167 180.213 18.1C180.213 17.2667 180.329 16.4583 180.563 15.675C180.813 14.8917 181.179 14.1917 181.663 13.575C182.163 12.9417 182.771 12.4417 183.488 12.075C184.221 11.6917 185.071 11.5 186.038 11.5C186.738 11.5 187.338 11.6083 187.838 11.825C188.338 12.025 188.754 12.275 189.088 12.575C189.421 12.875 189.663 13.1583 189.813 13.425H190.013V11.75H194.288V24.125C194.288 25.1917 194.038 26.1917 193.538 27.125C193.054 28.075 192.296 28.8417 191.263 29.425C190.246 30.025 188.921 30.325 187.288 30.325ZM187.313 21.35C187.946 21.35 188.471 21.1917 188.888 20.875C189.304 20.5583 189.613 20.15 189.813 19.65C190.029 19.15 190.138 18.6333 190.138 18.1C190.138 17.5333 190.029 17.0083 189.813 16.525C189.613 16.025 189.304 15.6167 188.888 15.3C188.471 14.9833 187.946 14.825 187.313 14.825C186.696 14.825 186.179 14.9833 185.763 15.3C185.346 15.6167 185.029 16.025 184.813 16.525C184.596 17.0083 184.488 17.5333 184.488 18.1C184.488 18.6333 184.596 19.15 184.813 19.65C185.029 20.15 185.346 20.5583 185.763 20.875C186.179 21.1917 186.696 21.35 187.313 21.35Z" fill="#111D15"/>
<path d="M42.7105 47.609C42.0145 47.609 41.4025 47.481 40.8745 47.225C40.3465 46.961 39.9065 46.613 39.5545 46.181C39.2105 45.741 38.9505 45.253 38.7745 44.717C38.5985 44.173 38.5105 43.617 38.5105 43.049C38.5105 42.481 38.5985 41.925 38.7745 41.381C38.9505 40.837 39.2105 40.349 39.5545 39.917C39.9065 39.477 40.3465 39.129 40.8745 38.873C41.4025 38.617 42.0145 38.489 42.7105 38.489C43.2865 38.489 43.7785 38.565 44.1865 38.717C44.6025 38.861 44.9465 39.049 45.2185 39.281C45.4985 39.513 45.7225 39.761 45.8905 40.025C46.0665 40.289 46.1945 40.537 46.2745 40.769C46.3625 41.001 46.4185 41.193 46.4425 41.345C46.4745 41.489 46.4905 41.561 46.4905 41.561H45.3145C45.3145 41.561 45.2985 41.497 45.2665 41.369C45.2345 41.233 45.1705 41.069 45.0745 40.877C44.9785 40.677 44.8345 40.477 44.6425 40.277C44.4505 40.077 44.1985 39.913 43.8865 39.785C43.5745 39.649 43.1865 39.581 42.7225 39.581C42.2185 39.581 41.7785 39.681 41.4025 39.881C41.0265 40.073 40.7105 40.337 40.4545 40.673C40.2065 41.001 40.0185 41.373 39.8905 41.789C39.7705 42.197 39.7105 42.617 39.7105 43.049C39.7105 43.481 39.7705 43.905 39.8905 44.321C40.0185 44.729 40.2065 45.101 40.4545 45.437C40.7105 45.765 41.0265 46.029 41.4025 46.229C41.7785 46.421 42.2185 46.517 42.7225 46.517C43.1865 46.517 43.5745 46.449 43.8865 46.313C44.1985 46.177 44.4505 46.013 44.6425 45.821C44.8345 45.621 44.9785 45.425 45.0745 45.233C45.1705 45.033 45.2345 44.865 45.2665 44.729C45.2985 44.593 45.3145 44.525 45.3145 44.525H46.4905C46.4905 44.525 46.4745 44.601 46.4425 44.753C46.4185 44.897 46.3625 45.089 46.2745 45.329C46.1945 45.561 46.0665 45.809 45.8905 46.073C45.7225 46.329 45.4985 46.577 45.2185 46.817C44.9465 47.049 44.6025 47.241 44.1865 47.393C43.7785 47.537 43.2865 47.609 42.7105 47.609ZM48.1152 47.489L48.1272 38.369H49.2552V47.489H48.1152ZM53.9457 47.609C53.4257 47.609 52.9737 47.517 52.5897 47.333C52.2137 47.141 51.9017 46.885 51.6537 46.565C51.4137 46.245 51.2337 45.893 51.1137 45.509C50.9937 45.117 50.9337 44.717 50.9337 44.309C50.9337 43.909 50.9897 43.513 51.1017 43.121C51.2217 42.729 51.4017 42.373 51.6417 42.053C51.8897 41.733 52.1977 41.481 52.5657 41.297C52.9417 41.105 53.3857 41.009 53.8977 41.009C54.4417 41.009 54.9217 41.133 55.3377 41.381C55.7537 41.629 56.0817 41.997 56.3217 42.485C56.5617 42.973 56.6817 43.585 56.6817 44.321V44.657H52.0857C52.1097 45.017 52.1937 45.349 52.3377 45.653C52.4897 45.949 52.7017 46.189 52.9737 46.373C53.2457 46.549 53.5697 46.637 53.9457 46.637C54.2737 46.637 54.5377 46.585 54.7377 46.481C54.9457 46.369 55.1097 46.241 55.2297 46.097C55.3497 45.953 55.4297 45.829 55.4697 45.725C55.5177 45.613 55.5417 45.557 55.5417 45.557H56.6097C56.6097 45.557 56.5897 45.629 56.5497 45.773C56.5097 45.909 56.4377 46.077 56.3337 46.277C56.2297 46.477 56.0777 46.681 55.8777 46.889C55.6777 47.089 55.4217 47.261 55.1097 47.405C54.7977 47.541 54.4097 47.609 53.9457 47.609ZM52.0977 43.769H55.5657C55.5497 43.353 55.4617 43.017 55.3017 42.761C55.1417 42.497 54.9377 42.301 54.6897 42.173C54.4417 42.045 54.1777 41.981 53.8977 41.981C53.3937 41.981 52.9817 42.145 52.6617 42.473C52.3417 42.793 52.1537 43.225 52.0977 43.769ZM60.9387 41.009C61.3387 41.009 61.6747 41.073 61.9467 41.201C62.2187 41.329 62.4387 41.481 62.6067 41.657C62.7747 41.825 62.9027 41.985 62.9907 42.137H63.0627V41.129H64.2027V47.489H63.0627V46.481H62.9907C62.9027 46.633 62.7747 46.797 62.6067 46.973C62.4387 47.149 62.2187 47.301 61.9467 47.429C61.6747 47.549 61.3387 47.609 60.9387 47.609C60.4587 47.609 60.0387 47.517 59.6787 47.333C59.3187 47.141 59.0187 46.889 58.7787 46.577C58.5387 46.257 58.3587 45.901 58.2387 45.509C58.1187 45.117 58.0587 44.717 58.0587 44.309C58.0587 43.901 58.1187 43.501 58.2387 43.109C58.3587 42.717 58.5387 42.365 58.7787 42.053C59.0187 41.733 59.3187 41.481 59.6787 41.297C60.0387 41.105 60.4587 41.009 60.9387 41.009ZM61.1307 41.981C60.7067 41.981 60.3507 42.097 60.0627 42.329C59.7747 42.553 59.5587 42.841 59.4147 43.193C59.2787 43.545 59.2107 43.917 59.2107 44.309C59.2107 44.693 59.2787 45.065 59.4147 45.425C59.5587 45.777 59.7747 46.069 60.0627 46.301C60.3507 46.525 60.7067 46.637 61.1307 46.637C61.5547 46.637 61.9067 46.525 62.1867 46.301C62.4747 46.069 62.6867 45.777 62.8227 45.425C62.9667 45.065 63.0387 44.693 63.0387 44.309C63.0387 43.917 62.9667 43.545 62.8227 43.193C62.6867 42.841 62.4747 42.553 62.1867 42.329C61.9067 42.097 61.5547 41.981 61.1307 41.981ZM65.878 47.489V41.129H67.018V42.053H67.09C67.146 41.957 67.238 41.825 67.366 41.657C67.502 41.489 67.694 41.341 67.942 41.213C68.19 41.077 68.502 41.009 68.878 41.009C69.342 41.009 69.738 41.117 70.066 41.333C70.394 41.541 70.642 41.825 70.81 42.185C70.986 42.545 71.074 42.949 71.074 43.397V47.489H69.934V43.469C69.934 43.045 69.814 42.693 69.574 42.413C69.342 42.133 69.002 41.993 68.554 41.993C68.194 41.993 67.902 42.085 67.678 42.269C67.454 42.445 67.286 42.681 67.174 42.977C67.07 43.265 67.018 43.573 67.018 43.901V47.489H65.878ZM73.5009 39.917C73.2849 39.917 73.1049 39.845 72.9609 39.701C72.8249 39.557 72.7569 39.385 72.7569 39.185C72.7569 38.977 72.8249 38.801 72.9609 38.657C73.1049 38.513 73.2849 38.441 73.5009 38.441C73.7089 38.441 73.8849 38.513 74.0289 38.657C74.1729 38.801 74.2449 38.977 74.2449 39.185C74.2449 39.385 74.1729 39.557 74.0289 39.701C73.8849 39.845 73.7089 39.917 73.5009 39.917ZM72.9369 47.489V41.129H74.0769V47.489H72.9369ZM75.9209 47.489V41.129H77.0609V42.053H77.1329C77.1889 41.957 77.2809 41.825 77.4089 41.657C77.5449 41.489 77.7369 41.341 77.9849 41.213C78.2329 41.077 78.5449 41.009 78.9209 41.009C79.3849 41.009 79.7809 41.117 80.1089 41.333C80.4369 41.541 80.6849 41.825 80.8529 42.185C81.0289 42.545 81.1169 42.949 81.1169 43.397V47.489H79.9769V43.469C79.9769 43.045 79.8569 42.693 79.6169 42.413C79.3849 42.133 79.0449 41.993 78.5969 41.993C78.2369 41.993 77.9449 42.085 77.7209 42.269C77.4969 42.445 77.3289 42.681 77.2169 42.977C77.1129 43.265 77.0609 43.573 77.0609 43.901V47.489H75.9209ZM85.8598 50.009C85.3318 50.009 84.8918 49.937 84.5398 49.793C84.1878 49.657 83.9038 49.481 83.6878 49.265C83.4798 49.057 83.3238 48.849 83.2198 48.641C83.1158 48.433 83.0478 48.257 83.0158 48.113C82.9838 47.977 82.9678 47.909 82.9678 47.909H84.1078C84.1078 47.909 84.1278 47.965 84.1678 48.077C84.2078 48.189 84.2838 48.317 84.3958 48.461C84.5158 48.605 84.6918 48.733 84.9238 48.845C85.1558 48.957 85.4678 49.013 85.8598 49.013C86.3238 49.013 86.6878 48.921 86.9518 48.737C87.2158 48.561 87.4038 48.329 87.5158 48.041C87.6358 47.753 87.6958 47.449 87.6958 47.129V46.397H87.6358C87.5558 46.533 87.4278 46.689 87.2518 46.865C87.0838 47.033 86.8598 47.181 86.5798 47.309C86.2998 47.429 85.9558 47.489 85.5478 47.489C85.0678 47.489 84.6478 47.397 84.2878 47.213C83.9278 47.029 83.6278 46.781 83.3878 46.469C83.1558 46.157 82.9798 45.809 82.8598 45.425C82.7398 45.041 82.6798 44.649 82.6798 44.249C82.6798 43.849 82.7398 43.457 82.8598 43.073C82.9798 42.689 83.1558 42.341 83.3878 42.029C83.6278 41.717 83.9278 41.469 84.2878 41.285C84.6478 41.101 85.0678 41.009 85.5478 41.009C85.9558 41.009 86.2998 41.073 86.5798 41.201C86.8598 41.321 87.0838 41.465 87.2518 41.633C87.4278 41.801 87.5558 41.957 87.6358 42.101H87.6958V41.129H88.8358V47.117C88.8358 48.005 88.5758 48.709 88.0558 49.229C87.5438 49.749 86.8118 50.009 85.8598 50.009ZM85.7638 46.517C86.1878 46.517 86.5398 46.409 86.8198 46.193C87.1078 45.969 87.3198 45.685 87.4558 45.341C87.5998 44.997 87.6718 44.633 87.6718 44.249C87.6718 43.865 87.5998 43.501 87.4558 43.157C87.3198 42.805 87.1078 42.521 86.8198 42.305C86.5398 42.089 86.1878 41.981 85.7638 41.981C85.3398 41.981 84.9838 42.089 84.6958 42.305C84.4078 42.521 84.1918 42.805 84.0478 43.157C83.9118 43.501 83.8438 43.865 83.8438 44.249C83.8438 44.633 83.9118 44.997 84.0478 45.341C84.1918 45.685 84.4078 45.969 84.6958 46.193C84.9838 46.409 85.3398 46.517 85.7638 46.517ZM96.3724 47.609C95.8604 47.609 95.4204 47.545 95.0524 47.417C94.6924 47.281 94.3924 47.109 94.1524 46.901C93.9124 46.685 93.7204 46.461 93.5764 46.229C93.4324 45.997 93.3244 45.777 93.2524 45.569C93.1804 45.353 93.1324 45.181 93.1084 45.053C93.0924 44.917 93.0844 44.849 93.0844 44.849H94.2844C94.2844 44.849 94.2964 44.905 94.3204 45.017C94.3444 45.129 94.3924 45.269 94.4644 45.437C94.5444 45.605 94.6604 45.777 94.8124 45.953C94.9644 46.121 95.1684 46.261 95.4244 46.373C95.6804 46.485 96.0044 46.541 96.3964 46.541C96.9884 46.541 97.4564 46.401 97.8004 46.121C98.1444 45.833 98.3164 45.461 98.3164 45.005C98.3164 44.613 98.1844 44.309 97.9204 44.093C97.6644 43.877 97.2964 43.709 96.8164 43.589L95.6404 43.301C95.2244 43.197 94.8364 43.053 94.4764 42.869C94.1244 42.677 93.8404 42.429 93.6244 42.125C93.4164 41.813 93.3124 41.425 93.3124 40.961C93.3124 40.441 93.4404 39.997 93.6964 39.629C93.9524 39.261 94.3004 38.981 94.7404 38.789C95.1804 38.589 95.6804 38.489 96.2404 38.489C96.7844 38.489 97.2364 38.573 97.5964 38.741C97.9564 38.909 98.2444 39.117 98.4604 39.365C98.6764 39.605 98.8364 39.849 98.9404 40.097C99.0444 40.337 99.1124 40.541 99.1444 40.709C99.1764 40.877 99.1924 40.961 99.1924 40.961H98.0404C98.0404 40.961 98.0244 40.889 97.9924 40.745C97.9604 40.601 97.8844 40.437 97.7644 40.253C97.6444 40.061 97.4604 39.893 97.2124 39.749C96.9644 39.605 96.6284 39.533 96.2044 39.533C95.6284 39.533 95.1924 39.669 94.8964 39.941C94.6084 40.213 94.4644 40.525 94.4644 40.877C94.4644 41.197 94.5804 41.457 94.8124 41.657C95.0444 41.849 95.3644 41.997 95.7724 42.101L97.0444 42.413C97.5004 42.525 97.9124 42.689 98.2804 42.905C98.6484 43.113 98.9404 43.385 99.1564 43.721C99.3724 44.049 99.4804 44.453 99.4804 44.933C99.4804 45.413 99.3604 45.857 99.1204 46.265C98.8884 46.673 98.5404 47.001 98.0764 47.249C97.6204 47.489 97.0524 47.609 96.3724 47.609ZM103.786 47.609C103.266 47.609 102.814 47.517 102.43 47.333C102.054 47.141 101.742 46.885 101.494 46.565C101.254 46.245 101.074 45.893 100.954 45.509C100.834 45.117 100.774 44.717 100.774 44.309C100.774 43.909 100.83 43.513 100.942 43.121C101.062 42.729 101.242 42.373 101.482 42.053C101.73 41.733 102.038 41.481 102.406 41.297C102.782 41.105 103.226 41.009 103.738 41.009C104.282 41.009 104.762 41.133 105.178 41.381C105.594 41.629 105.922 41.997 106.162 42.485C106.402 42.973 106.522 43.585 106.522 44.321V44.657H101.926C101.95 45.017 102.034 45.349 102.178 45.653C102.33 45.949 102.542 46.189 102.814 46.373C103.086 46.549 103.41 46.637 103.786 46.637C104.114 46.637 104.378 46.585 104.578 46.481C104.786 46.369 104.95 46.241 105.07 46.097C105.19 45.953 105.27 45.829 105.31 45.725C105.358 45.613 105.382 45.557 105.382 45.557H106.45C106.45 45.557 106.43 45.629 106.39 45.773C106.35 45.909 106.278 46.077 106.174 46.277C106.07 46.477 105.918 46.681 105.718 46.889C105.518 47.089 105.262 47.261 104.95 47.405C104.638 47.541 104.25 47.609 103.786 47.609ZM101.938 43.769H105.406C105.39 43.353 105.302 43.017 105.142 42.761C104.982 42.497 104.778 42.301 104.53 42.173C104.282 42.045 104.018 41.981 103.738 41.981C103.234 41.981 102.822 42.145 102.502 42.473C102.182 42.793 101.994 43.225 101.938 43.769ZM108.077 47.489V41.129H109.217V41.921H109.265C109.401 41.681 109.601 41.469 109.865 41.285C110.129 41.101 110.501 41.009 110.981 41.009C111.117 41.009 111.241 41.017 111.353 41.033C111.465 41.041 111.521 41.045 111.521 41.045V42.137C111.521 42.137 111.457 42.133 111.329 42.125C111.209 42.109 111.081 42.101 110.945 42.101C110.393 42.101 109.965 42.261 109.661 42.581C109.365 42.893 109.217 43.405 109.217 44.117V47.489H108.077ZM114.78 47.489L112.356 41.129H113.544L115.404 46.097L117.228 41.129H118.428L115.992 47.489H114.78ZM120.434 39.917C120.218 39.917 120.038 39.845 119.894 39.701C119.758 39.557 119.69 39.385 119.69 39.185C119.69 38.977 119.758 38.801 119.894 38.657C120.038 38.513 120.218 38.441 120.434 38.441C120.642 38.441 120.818 38.513 120.962 38.657C121.106 38.801 121.178 38.977 121.178 39.185C121.178 39.385 121.106 39.557 120.962 39.701C120.818 39.845 120.642 39.917 120.434 39.917ZM119.87 47.489V41.129H121.01V47.489H119.87ZM125.867 47.609C125.347 47.609 124.891 47.517 124.499 47.333C124.107 47.141 123.779 46.889 123.515 46.577C123.259 46.257 123.063 45.901 122.927 45.509C122.799 45.117 122.735 44.717 122.735 44.309C122.735 43.901 122.799 43.505 122.927 43.121C123.055 42.729 123.247 42.373 123.503 42.053C123.767 41.733 124.095 41.481 124.487 41.297C124.879 41.105 125.339 41.009 125.867 41.009C126.379 41.009 126.803 41.085 127.139 41.237C127.475 41.389 127.743 41.581 127.943 41.813C128.151 42.037 128.303 42.265 128.399 42.497C128.503 42.721 128.571 42.909 128.603 43.061C128.635 43.213 128.651 43.289 128.651 43.289H127.547C127.547 43.289 127.527 43.225 127.487 43.097C127.447 42.961 127.371 42.809 127.259 42.641C127.147 42.473 126.979 42.325 126.755 42.197C126.531 42.061 126.235 41.993 125.867 41.993C125.427 41.993 125.055 42.105 124.751 42.329C124.455 42.545 124.231 42.829 124.079 43.181C123.935 43.533 123.863 43.909 123.863 44.309C123.863 44.709 123.935 45.085 124.079 45.437C124.231 45.789 124.455 46.077 124.751 46.301C125.055 46.517 125.427 46.625 125.867 46.625C126.235 46.625 126.531 46.561 126.755 46.433C126.979 46.297 127.147 46.145 127.259 45.977C127.371 45.809 127.447 45.661 127.487 45.533C127.527 45.397 127.547 45.329 127.547 45.329H128.651C128.651 45.329 128.635 45.405 128.603 45.557C128.571 45.709 128.503 45.901 128.399 46.133C128.303 46.357 128.151 46.585 127.943 46.817C127.743 47.041 127.475 47.229 127.139 47.381C126.803 47.533 126.379 47.609 125.867 47.609ZM133.106 47.609C132.586 47.609 132.134 47.517 131.75 47.333C131.374 47.141 131.062 46.885 130.814 46.565C130.574 46.245 130.394 45.893 130.274 45.509C130.154 45.117 130.094 44.717 130.094 44.309C130.094 43.909 130.15 43.513 130.262 43.121C130.382 42.729 130.562 42.373 130.802 42.053C131.05 41.733 131.358 41.481 131.726 41.297C132.102 41.105 132.546 41.009 133.058 41.009C133.602 41.009 134.082 41.133 134.498 41.381C134.914 41.629 135.242 41.997 135.482 42.485C135.722 42.973 135.842 43.585 135.842 44.321V44.657H131.246C131.27 45.017 131.354 45.349 131.498 45.653C131.65 45.949 131.862 46.189 132.134 46.373C132.406 46.549 132.73 46.637 133.106 46.637C133.434 46.637 133.698 46.585 133.898 46.481C134.106 46.369 134.27 46.241 134.39 46.097C134.51 45.953 134.59 45.829 134.63 45.725C134.678 45.613 134.702 45.557 134.702 45.557H135.77C135.77 45.557 135.75 45.629 135.71 45.773C135.67 45.909 135.598 46.077 135.494 46.277C135.39 46.477 135.238 46.681 135.038 46.889C134.838 47.089 134.582 47.261 134.27 47.405C133.958 47.541 133.57 47.609 133.106 47.609ZM131.258 43.769H134.726C134.71 43.353 134.622 43.017 134.462 42.761C134.302 42.497 134.098 42.301 133.85 42.173C133.602 42.045 133.338 41.981 133.058 41.981C132.554 41.981 132.142 42.145 131.822 42.473C131.502 42.793 131.314 43.225 131.258 43.769ZM139.725 47.609C139.237 47.609 138.833 47.541 138.513 47.405C138.201 47.269 137.953 47.101 137.769 46.901C137.585 46.693 137.449 46.489 137.361 46.289C137.273 46.081 137.217 45.909 137.193 45.773C137.169 45.637 137.157 45.569 137.157 45.569H138.309C138.309 45.569 138.321 45.625 138.345 45.737C138.377 45.841 138.437 45.965 138.525 46.109C138.621 46.245 138.765 46.369 138.957 46.481C139.157 46.585 139.421 46.637 139.749 46.637C140.125 46.637 140.417 46.549 140.625 46.373C140.833 46.189 140.937 45.965 140.937 45.701C140.937 45.469 140.853 45.285 140.685 45.149C140.525 45.013 140.293 44.909 139.989 44.837L139.125 44.633C138.805 44.553 138.505 44.445 138.225 44.309C137.945 44.173 137.717 43.989 137.541 43.757C137.373 43.517 137.289 43.221 137.289 42.869C137.289 42.325 137.493 41.881 137.901 41.537C138.309 41.185 138.841 41.009 139.497 41.009C139.937 41.009 140.301 41.073 140.589 41.201C140.877 41.321 141.105 41.473 141.273 41.657C141.449 41.841 141.577 42.025 141.657 42.209C141.745 42.393 141.801 42.549 141.825 42.677C141.849 42.797 141.861 42.857 141.861 42.857H140.757C140.757 42.857 140.745 42.813 140.721 42.725C140.697 42.629 140.641 42.525 140.553 42.413C140.473 42.293 140.349 42.189 140.181 42.101C140.013 42.005 139.789 41.957 139.509 41.957C139.125 41.957 138.845 42.045 138.669 42.221C138.493 42.397 138.405 42.589 138.405 42.797C138.405 42.997 138.485 43.161 138.645 43.289C138.813 43.409 139.029 43.501 139.293 43.565L140.169 43.769C140.713 43.897 141.161 44.109 141.513 44.405C141.873 44.693 142.053 45.109 142.053 45.653C142.053 46.005 141.961 46.333 141.777 46.637C141.593 46.933 141.329 47.169 140.985 47.345C140.641 47.521 140.221 47.609 139.725 47.609ZM149.269 47.609C148.749 47.609 148.293 47.517 147.901 47.333C147.509 47.141 147.181 46.889 146.917 46.577C146.661 46.257 146.465 45.901 146.329 45.509C146.201 45.117 146.137 44.717 146.137 44.309C146.137 43.901 146.201 43.505 146.329 43.121C146.457 42.729 146.649 42.373 146.905 42.053C147.169 41.733 147.497 41.481 147.889 41.297C148.281 41.105 148.741 41.009 149.269 41.009C149.781 41.009 150.205 41.085 150.541 41.237C150.877 41.389 151.145 41.581 151.345 41.813C151.553 42.037 151.705 42.265 151.801 42.497C151.905 42.721 151.973 42.909 152.005 43.061C152.037 43.213 152.053 43.289 152.053 43.289H150.949C150.949 43.289 150.929 43.225 150.889 43.097C150.849 42.961 150.773 42.809 150.661 42.641C150.549 42.473 150.381 42.325 150.157 42.197C149.933 42.061 149.637 41.993 149.269 41.993C148.829 41.993 148.457 42.105 148.153 42.329C147.857 42.545 147.633 42.829 147.481 43.181C147.337 43.533 147.265 43.909 147.265 44.309C147.265 44.709 147.337 45.085 147.481 45.437C147.633 45.789 147.857 46.077 148.153 46.301C148.457 46.517 148.829 46.625 149.269 46.625C149.637 46.625 149.933 46.561 150.157 46.433C150.381 46.297 150.549 46.145 150.661 45.977C150.773 45.809 150.849 45.661 150.889 45.533C150.929 45.397 150.949 45.329 150.949 45.329H152.053C152.053 45.329 152.037 45.405 152.005 45.557C151.973 45.709 151.905 45.901 151.801 46.133C151.705 46.357 151.553 46.585 151.345 46.817C151.145 47.041 150.877 47.229 150.541 47.381C150.205 47.533 149.781 47.609 149.269 47.609ZM156.628 47.609C155.948 47.609 155.376 47.453 154.912 47.141C154.448 46.821 154.096 46.409 153.856 45.905C153.616 45.401 153.496 44.869 153.496 44.309C153.496 43.741 153.616 43.209 153.856 42.713C154.096 42.209 154.448 41.801 154.912 41.489C155.376 41.169 155.948 41.009 156.628 41.009C157.308 41.009 157.88 41.169 158.344 41.489C158.808 41.801 159.16 42.209 159.4 42.713C159.64 43.209 159.76 43.741 159.76 44.309C159.76 44.869 159.64 45.401 159.4 45.905C159.16 46.409 158.808 46.821 158.344 47.141C157.88 47.453 157.308 47.609 156.628 47.609ZM156.628 46.613C157.06 46.613 157.42 46.505 157.708 46.289C158.004 46.065 158.224 45.777 158.368 45.425C158.52 45.073 158.596 44.701 158.596 44.309C158.596 43.909 158.52 43.537 158.368 43.193C158.224 42.841 158.004 42.557 157.708 42.341C157.42 42.117 157.06 42.005 156.628 42.005C156.204 42.005 155.844 42.117 155.548 42.341C155.252 42.557 155.028 42.841 154.876 43.193C154.732 43.537 154.66 43.909 154.66 44.309C154.66 44.701 154.732 45.073 154.876 45.425C155.028 45.777 155.252 46.065 155.548 46.289C155.844 46.505 156.204 46.613 156.628 46.613ZM161.315 47.489V41.129H162.455V42.053H162.503C162.567 41.933 162.667 41.793 162.803 41.633C162.939 41.465 163.123 41.321 163.355 41.201C163.595 41.073 163.895 41.009 164.255 41.009C164.727 41.009 165.123 41.125 165.443 41.357C165.771 41.581 166.015 41.885 166.175 42.269H166.187C166.363 41.917 166.611 41.621 166.931 41.381C167.259 41.133 167.683 41.009 168.203 41.009C168.891 41.009 169.419 41.245 169.787 41.717C170.163 42.181 170.351 42.781 170.351 43.517V47.489H169.211V43.577C169.211 43.105 169.099 42.725 168.875 42.437C168.651 42.141 168.327 41.993 167.903 41.993C167.535 41.993 167.239 42.093 167.015 42.293C166.799 42.493 166.643 42.741 166.547 43.037C166.451 43.333 166.403 43.629 166.403 43.925V47.489H165.263V43.577C165.263 43.105 165.151 42.725 164.927 42.437C164.711 42.141 164.387 41.993 163.955 41.993C163.587 41.993 163.291 42.093 163.067 42.293C162.851 42.493 162.695 42.745 162.599 43.049C162.503 43.345 162.455 43.637 162.455 43.925V47.489H161.315ZM172.146 49.841V41.129H173.286V42.137H173.358C173.454 41.985 173.582 41.821 173.742 41.645C173.91 41.469 174.13 41.321 174.402 41.201C174.674 41.073 175.01 41.009 175.41 41.009C175.89 41.009 176.31 41.105 176.67 41.297C177.03 41.481 177.33 41.733 177.57 42.053C177.81 42.365 177.99 42.717 178.11 43.109C178.23 43.501 178.29 43.901 178.29 44.309C178.29 44.717 178.23 45.117 178.11 45.509C177.99 45.901 177.81 46.257 177.57 46.577C177.33 46.889 177.03 47.141 176.67 47.333C176.31 47.517 175.89 47.609 175.41 47.609C175.01 47.609 174.674 47.545 174.402 47.417C174.13 47.289 173.91 47.137 173.742 46.961C173.582 46.785 173.454 46.625 173.358 46.481H173.286V49.841H172.146ZM173.31 44.309C173.31 44.693 173.378 45.065 173.514 45.425C173.658 45.777 173.87 46.069 174.15 46.301C174.438 46.525 174.794 46.637 175.218 46.637C175.65 46.637 176.006 46.525 176.286 46.301C176.574 46.069 176.786 45.777 176.922 45.425C177.066 45.065 177.138 44.693 177.138 44.309C177.138 43.917 177.066 43.545 176.922 43.193C176.786 42.841 176.574 42.553 176.286 42.329C176.006 42.097 175.65 41.981 175.218 41.981C174.794 41.981 174.438 42.097 174.15 42.329C173.87 42.553 173.658 42.841 173.514 43.193C173.378 43.545 173.31 43.917 173.31 44.309ZM182.556 41.009C182.956 41.009 183.292 41.073 183.564 41.201C183.836 41.329 184.056 41.481 184.224 41.657C184.392 41.825 184.52 41.985 184.608 42.137H184.68V41.129H185.82V47.489H184.68V46.481H184.608C184.52 46.633 184.392 46.797 184.224 46.973C184.056 47.149 183.836 47.301 183.564 47.429C183.292 47.549 182.956 47.609 182.556 47.609C182.076 47.609 181.656 47.517 181.296 47.333C180.936 47.141 180.636 46.889 180.396 46.577C180.156 46.257 179.976 45.901 179.856 45.509C179.736 45.117 179.676 44.717 179.676 44.309C179.676 43.901 179.736 43.501 179.856 43.109C179.976 42.717 180.156 42.365 180.396 42.053C180.636 41.733 180.936 41.481 181.296 41.297C181.656 41.105 182.076 41.009 182.556 41.009ZM182.748 41.981C182.324 41.981 181.968 42.097 181.68 42.329C181.392 42.553 181.176 42.841 181.032 43.193C180.896 43.545 180.828 43.917 180.828 44.309C180.828 44.693 180.896 45.065 181.032 45.425C181.176 45.777 181.392 46.069 181.68 46.301C181.968 46.525 182.324 46.637 182.748 46.637C183.172 46.637 183.524 46.525 183.804 46.301C184.092 46.069 184.304 45.777 184.44 45.425C184.584 45.065 184.656 44.693 184.656 44.309C184.656 43.917 184.584 43.545 184.44 43.193C184.304 42.841 184.092 42.553 183.804 42.329C183.524 42.097 183.172 41.981 182.748 41.981ZM187.495 47.489V41.129H188.635V42.053H188.707C188.763 41.957 188.855 41.825 188.983 41.657C189.119 41.489 189.311 41.341 189.559 41.213C189.807 41.077 190.119 41.009 190.495 41.009C190.959 41.009 191.355 41.117 191.683 41.333C192.011 41.541 192.259 41.825 192.427 42.185C192.603 42.545 192.691 42.949 192.691 43.397V47.489H191.551V43.469C191.551 43.045 191.431 42.693 191.191 42.413C190.959 42.133 190.619 41.993 190.171 41.993C189.811 41.993 189.519 42.085 189.295 42.269C189.071 42.445 188.903 42.681 188.791 42.977C188.687 43.265 188.635 43.573 188.635 43.901V47.489H187.495ZM194.251 49.829C194.067 49.829 193.911 49.821 193.783 49.805C193.655 49.789 193.591 49.781 193.591 49.781V48.809C193.591 48.809 193.655 48.813 193.783 48.821C193.919 48.837 194.063 48.845 194.215 48.845C194.687 48.845 195.071 48.745 195.367 48.545C195.671 48.353 195.927 48.033 196.135 47.585L193.675 41.129H194.863L196.699 46.097L198.547 41.129H199.747L197.287 47.501C196.975 48.301 196.571 48.889 196.075 49.265C195.587 49.641 194.979 49.829 194.251 49.829Z" fill="#4D4D4D"/>
</svg>
